<svg id="Layer_1" data-name="Layer 1" xmlns="http://www.w3.org/2000/svg" xmlns:xlink="http://www.w3.org/1999/xlink" viewBox="0 0 113.37 43.75"><defs><style>.cls-1,.cls-24,.cls-25{font-size:35px;font-family:Politica-ExtraBoldItalic, Politica;font-weight:800;font-style:italic;}.cls-2{letter-spacing:-0.08em;}.cls-3{fill:url(#linear-gradient);}.cls-4{fill:url(#linear-gradient-7);}.cls-5{fill:url(#linear-gradient-13);}.cls-6{fill:url(#linear-gradient-19);}.cls-7{fill:url(#linear-gradient-25);}.cls-8{fill:url(#linear-gradient-31);}.cls-9{fill:url(#linear-gradient-37);}.cls-10{fill:url(#linear-gradient-43);}.cls-11{fill:url(#linear-gradient-49);}.cls-12{fill:url(#linear-gradient-55);}.cls-13{fill:url(#linear-gradient-61);}.cls-14{fill:url(#linear-gradient-67);}.cls-15{fill:url(#linear-gradient-73);}.cls-16{fill:url(#linear-gradient-79);}.cls-17{fill:url(#linear-gradient-85);}.cls-18{fill:url(#linear-gradient-91);}.cls-19{fill:url(#linear-gradient-97);}.cls-20{fill:url(#linear-gradient-103);}.cls-21{fill:url(#linear-gradient-109);}.cls-22{fill:url(#linear-gradient-115);}.cls-23{fill:url(#linear-gradient-121);}.cls-24{fill:#f2f2f2;}.cls-25{fill:none;stroke:#f2f2f2;stroke-miterlimit:10;}</style><linearGradient id="linear-gradient" x1="631.46" y1="336.84" x2="631.21" y2="372.93" gradientTransform="translate(-5 5)" gradientUnits="userSpaceOnUse"><stop offset="0.02" stop-color="#fbae17"/><stop offset="0.08" stop-color="#14488c"/><stop offset="0.34" stop-color="#361f69"/></linearGradient><linearGradient id="linear-gradient-7" x1="631.46" y1="336.84" x2="631.21" y2="372.93" gradientTransform="translate(-4.75 4.75)" xlink:href="#linear-gradient"/><linearGradient id="linear-gradient-13" x1="631.46" y1="336.84" x2="631.21" y2="372.93" gradientTransform="translate(-4.5 4.5)" xlink:href="#linear-gradient"/><linearGradient id="linear-gradient-19" x1="631.46" y1="336.84" x2="631.21" y2="372.93" gradientTransform="translate(-4.25 4.25)" xlink:href="#linear-gradient"/><linearGradient id="linear-gradient-25" x1="631.46" y1="336.84" x2="631.21" y2="372.93" gradientTransform="translate(-4 4)" xlink:href="#linear-gradient"/><linearGradient id="linear-gradient-31" x1="631.46" y1="336.84" x2="631.21" y2="372.93" gradientTransform="translate(-3.75 3.75)" xlink:href="#linear-gradient"/><linearGradient id="linear-gradient-37" x1="631.46" y1="336.84" x2="631.21" y2="372.93" gradientTransform="translate(-3.5 3.5)" xlink:href="#linear-gradient"/><linearGradient id="linear-gradient-43" x1="631.46" y1="336.84" x2="631.21" y2="372.93" gradientTransform="translate(-3.25 3.25)" xlink:href="#linear-gradient"/><linearGradient id="linear-gradient-49" x1="631.46" y1="336.84" x2="631.21" y2="372.93" gradientTransform="translate(-3 3)" xlink:href="#linear-gradient"/><linearGradient id="linear-gradient-55" x1="631.46" y1="336.84" x2="631.21" y2="372.93" gradientTransform="translate(-2.75 2.75)" xlink:href="#linear-gradient"/><linearGradient id="linear-gradient-61" x1="631.46" y1="336.84" x2="631.21" y2="372.93" gradientTransform="translate(-2.5 2.5)" xlink:href="#linear-gradient"/><linearGradient id="linear-gradient-67" x1="631.46" y1="336.84" x2="631.21" y2="372.93" gradientTransform="translate(-2.25 2.25)" xlink:href="#linear-gradient"/><linearGradient id="linear-gradient-73" x1="631.46" y1="336.84" x2="631.21" y2="372.93" gradientTransform="translate(-2 2)" xlink:href="#linear-gradient"/><linearGradient id="linear-gradient-79" x1="631.46" y1="336.84" x2="631.21" y2="372.93" gradientTransform="translate(-1.75 1.75)" xlink:href="#linear-gradient"/><linearGradient id="linear-gradient-85" x1="631.46" y1="336.84" x2="631.21" y2="372.93" gradientTransform="translate(-1.5 1.5)" xlink:href="#linear-gradient"/><linearGradient id="linear-gradient-91" x1="631.46" y1="336.84" x2="631.21" y2="372.93" gradientTransform="translate(-1.25 1.25)" xlink:href="#linear-gradient"/><linearGradient id="linear-gradient-97" x1="631.46" y1="336.84" x2="631.21" y2="372.93" gradientTransform="translate(-1 1)" xlink:href="#linear-gradient"/><linearGradient id="linear-gradient-103" x1="631.46" y1="336.84" x2="631.21" y2="372.93" gradientTransform="translate(-0.75 0.75)" xlink:href="#linear-gradient"/><linearGradient id="linear-gradient-109" x1="631.46" y1="336.84" x2="631.21" y2="372.93" gradientTransform="translate(-0.5 0.5)" xlink:href="#linear-gradient"/><linearGradient id="linear-gradient-115" x1="631.46" y1="336.84" x2="631.21" y2="372.93" gradientTransform="translate(-0.25 0.25)" xlink:href="#linear-gradient"/><linearGradient id="linear-gradient-121" x1="631.46" y1="336.84" x2="631.21" y2="372.93" gradientTransform="matrix(1, 0, 0, 1, 0, 0)" xlink:href="#linear-gradient"/></defs><text class="cls-1" transform="translate(2.55 32)"><tspan class="cls-2">T</tspan><tspan x="13.93" y="0">oDoer</tspan></text><path class="cls-3" d="M586.06,339.79l-3.71,23.46H577.8l3.71-23.46h-5.74l.7-4.55h16l-.7,4.55Z" transform="translate(-575.77 -326.25)"/><path class="cls-3" d="M604.16,347.25a6.37,6.37,0,0,1-.07.7l-1.75,11A5.67,5.67,0,0,1,597,363.6h-4.87a3.85,3.85,0,0,1-4-3.92,6.17,6.17,0,0,1,.07-.74l1.75-11a5.62,5.62,0,0,1,5.39-4.66h4.87A3.84,3.84,0,0,1,604.16,347.25Zm-9.73.87-1.65,10.44a.56.56,0,0,0,0,.21c0,.17.07.27.17.27h4.55c.21,0,.32-.17.39-.48l1.64-10.44c0-.17,0-.28-.17-.28h-4.59C594.6,347.84,594.5,348,594.43,348.12Z" transform="translate(-575.77 -326.25)"/><path class="cls-3" d="M625,339.27a5.91,5.91,0,0,1-.07.8L622,358.21a6.06,6.06,0,0,1-5.81,5H605.94l4.41-28h10.29A4,4,0,0,1,625,339.27ZM611.23,358.7H617c.31,0,.45-.14.52-.49l2.87-18.14V340q0-.21-.42-.21H614.2Z" transform="translate(-575.77 -326.25)"/><path class="cls-3" d="M641.68,347.25a6.37,6.37,0,0,1-.07.7l-1.75,11a5.67,5.67,0,0,1-5.39,4.66H629.6a3.84,3.84,0,0,1-4-3.92,4.63,4.63,0,0,1,.07-.74l1.75-11a5.61,5.61,0,0,1,5.39-4.66h4.87A3.84,3.84,0,0,1,641.68,347.25Zm-9.73.87-1.65,10.44a.43.43,0,0,0,0,.21c0,.17.07.27.18.27H635c.21,0,.32-.17.39-.48L637,348.12c0-.17,0-.28-.17-.28h-4.59C632.12,347.84,632,348,632,348.12Z" transform="translate(-575.77 -326.25)"/><path class="cls-3" d="M659.42,347.25a4.6,4.6,0,0,1-.07.7l-.56,3.46c-.1.67-1,1.37-1.89,1.82l-8.61,3.85-.25,1.44v.14c0,.21.07.38.21.38h4.45c.21,0,.35-.24.42-.52l.31-2.1H658l-.39,2.52a5.64,5.64,0,0,1-5.39,4.66h-4.87a3.82,3.82,0,0,1-4-3.89,6.88,6.88,0,0,1,.07-.77l1.75-11a5.62,5.62,0,0,1,5.39-4.66h4.87A3.83,3.83,0,0,1,659.42,347.25Zm-9.73.91-.63,4.06,4.69-1.93a1.34,1.34,0,0,0,.84-1.08l.17-1c0-.18,0-.32-.21-.32H650A.36.36,0,0,0,649.69,348.16Z" transform="translate(-575.77 -326.25)"/><path class="cls-3" d="M674.29,343.33a2.73,2.73,0,0,1,2.84,2.8,3.57,3.57,0,0,1,0,.56l-.53,3.5H672l.21-1.51v-.17c0-.18,0-.25-.21-.25s-3.33,1-5,1.58l-2.1,13.41h-4.55l3.08-19.61H668l-.28,1.65S672.44,343.33,674.29,343.33Z" transform="translate(-575.77 -326.25)"/><path class="cls-4" d="M586.31,339.54,582.6,363h-4.55l3.71-23.46H576l.7-4.55h16l-.7,4.55Z" transform="translate(-575.77 -326.25)"/><path class="cls-4" d="M604.41,347a6.37,6.37,0,0,1-.07.7l-1.75,11a5.67,5.67,0,0,1-5.39,4.66h-4.87a3.85,3.85,0,0,1-4-3.92,6.17,6.17,0,0,1,.07-.74l1.75-11a5.62,5.62,0,0,1,5.39-4.66h4.87A3.84,3.84,0,0,1,604.41,347Zm-9.73.87L593,358.31a.59.59,0,0,0,0,.21c0,.17.07.27.17.27h4.55c.21,0,.32-.17.39-.48l1.64-10.44c0-.17,0-.28-.17-.28H595C594.85,347.59,594.75,347.7,594.68,347.87Z" transform="translate(-575.77 -326.25)"/><path class="cls-4" d="M625.23,339a5.91,5.91,0,0,1-.07.8L622.29,358a6.06,6.06,0,0,1-5.81,5H606.19l4.41-28h10.29A4,4,0,0,1,625.23,339Zm-13.75,19.43h5.74c.31,0,.45-.14.52-.49l2.87-18.14v-.07q0-.21-.42-.21h-5.74Z" transform="translate(-575.77 -326.25)"/><path class="cls-4" d="M641.93,347a6.37,6.37,0,0,1-.07.7l-1.75,11a5.67,5.67,0,0,1-5.39,4.66h-4.87a3.84,3.84,0,0,1-4-3.92,4.63,4.63,0,0,1,.07-.74l1.75-11a5.61,5.61,0,0,1,5.39-4.66h4.87A3.84,3.84,0,0,1,641.93,347Zm-9.73.87-1.65,10.44a.45.45,0,0,0,0,.21c0,.17.07.27.18.27h4.55c.21,0,.32-.17.39-.48l1.64-10.44c0-.17,0-.28-.17-.28h-4.59C632.37,347.59,632.27,347.7,632.2,347.87Z" transform="translate(-575.77 -326.25)"/><path class="cls-4" d="M659.67,347a4.6,4.6,0,0,1-.07.7l-.56,3.46c-.1.67-1,1.37-1.89,1.82l-8.61,3.85-.25,1.44v.14c0,.21.07.38.21.38H653c.21,0,.35-.24.42-.52l.31-2.1h4.56l-.39,2.52a5.64,5.64,0,0,1-5.39,4.66h-4.87a3.82,3.82,0,0,1-4-3.89,6.88,6.88,0,0,1,.07-.77l1.75-11a5.62,5.62,0,0,1,5.39-4.66h4.87A3.83,3.83,0,0,1,659.67,347Zm-9.73.91-.63,4.06L654,350a1.34,1.34,0,0,0,.84-1.08l.17-1c0-.18,0-.32-.21-.32h-4.51A.36.36,0,0,0,649.94,347.91Z" transform="translate(-575.77 -326.25)"/><path class="cls-4" d="M674.54,343.08a2.73,2.73,0,0,1,2.84,2.8,3.57,3.57,0,0,1,0,.56l-.53,3.5h-4.55l.21-1.51v-.17c0-.18,0-.25-.21-.25s-3.33,1-5,1.58L665.13,363h-4.55l3.08-19.61h4.55l-.28,1.65S672.69,343.08,674.54,343.08Z" transform="translate(-575.77 -326.25)"/><path class="cls-5" d="M586.56,339.29l-3.71,23.46H578.3L582,339.29h-5.74l.7-4.55h16l-.7,4.55Z" transform="translate(-575.77 -326.25)"/><path class="cls-5" d="M604.66,346.75a6.37,6.37,0,0,1-.07.7l-1.75,11a5.67,5.67,0,0,1-5.39,4.66h-4.87a3.85,3.85,0,0,1-4-3.92,6.17,6.17,0,0,1,.07-.74l1.75-11a5.62,5.62,0,0,1,5.39-4.66h4.87A3.84,3.84,0,0,1,604.66,346.75Zm-9.73.87-1.65,10.44a.56.56,0,0,0,0,.21c0,.17.07.27.17.27H598c.21,0,.32-.17.39-.48L600,347.62c0-.17,0-.28-.17-.28h-4.59C595.1,347.34,595,347.45,594.93,347.62Z" transform="translate(-575.77 -326.25)"/><path class="cls-5" d="M625.48,338.77a5.91,5.91,0,0,1-.07.8l-2.87,18.14a6.06,6.06,0,0,1-5.81,5H606.44l4.41-28h10.29A4,4,0,0,1,625.48,338.77ZM611.73,358.2h5.74c.31,0,.45-.14.52-.49l2.87-18.14v-.07q0-.21-.42-.21H614.7Z" transform="translate(-575.77 -326.25)"/><path class="cls-5" d="M642.18,346.75a6.37,6.37,0,0,1-.07.7l-1.75,11A5.67,5.67,0,0,1,635,363.1H630.1a3.84,3.84,0,0,1-4-3.92,4.63,4.63,0,0,1,.07-.74l1.75-11a5.61,5.61,0,0,1,5.39-4.66h4.87A3.84,3.84,0,0,1,642.18,346.75Zm-9.73.87-1.65,10.44a.43.43,0,0,0,0,.21c0,.17.07.27.18.27h4.55c.21,0,.32-.17.39-.48l1.64-10.44c0-.17,0-.28-.17-.28h-4.59C632.62,347.34,632.52,347.45,632.45,347.62Z" transform="translate(-575.77 -326.25)"/><path class="cls-5" d="M659.92,346.75a4.6,4.6,0,0,1-.07.7l-.56,3.46c-.1.67-1,1.37-1.89,1.82l-8.61,3.85-.25,1.44v.14c0,.21.07.38.21.38h4.45c.21,0,.35-.24.42-.52l.31-2.1h4.56l-.39,2.52a5.64,5.64,0,0,1-5.39,4.66h-4.87a3.82,3.82,0,0,1-4-3.89,6.88,6.88,0,0,1,.07-.77l1.75-11a5.62,5.62,0,0,1,5.39-4.66h4.87A3.83,3.83,0,0,1,659.92,346.75Zm-9.73.91-.63,4.06,4.69-1.93a1.34,1.34,0,0,0,.84-1.08l.17-1c0-.18,0-.32-.21-.32h-4.51A.36.36,0,0,0,650.19,347.66Z" transform="translate(-575.77 -326.25)"/><path class="cls-5" d="M674.79,342.83a2.73,2.73,0,0,1,2.84,2.8,3.57,3.57,0,0,1,0,.56l-.53,3.5h-4.55l.21-1.51V348c0-.18,0-.25-.21-.25s-3.33,1-5,1.58l-2.1,13.41h-4.55l3.08-19.61h4.55l-.28,1.65S672.94,342.83,674.79,342.83Z" transform="translate(-575.77 -326.25)"/><path class="cls-6" d="M586.81,339,583.1,362.5h-4.55L582.26,339h-5.74l.7-4.55h16l-.7,4.55Z" transform="translate(-575.77 -326.25)"/><path class="cls-6" d="M604.91,346.5a6.37,6.37,0,0,1-.07.7l-1.75,11a5.67,5.67,0,0,1-5.39,4.66h-4.87a3.85,3.85,0,0,1-4-3.92,6.17,6.17,0,0,1,.07-.74l1.75-11a5.62,5.62,0,0,1,5.39-4.66h4.87A3.84,3.84,0,0,1,604.91,346.5Zm-9.73.87-1.65,10.44a.59.59,0,0,0,0,.21c0,.17.07.27.17.27h4.55c.21,0,.32-.17.39-.48l1.64-10.44c0-.17,0-.28-.17-.28h-4.59C595.35,347.09,595.25,347.2,595.18,347.37Z" transform="translate(-575.77 -326.25)"/><path class="cls-6" d="M625.73,338.52a5.91,5.91,0,0,1-.07.8l-2.87,18.14a6.06,6.06,0,0,1-5.81,5H606.69l4.41-28h10.29A4,4,0,0,1,625.73,338.52ZM612,358h5.74c.31,0,.45-.14.52-.49l2.87-18.14v-.07q0-.21-.42-.21H615Z" transform="translate(-575.77 -326.25)"/><path class="cls-6" d="M642.43,346.5a6.37,6.37,0,0,1-.07.7l-1.75,11a5.67,5.67,0,0,1-5.39,4.66h-4.87a3.84,3.84,0,0,1-4-3.92,4.63,4.63,0,0,1,.07-.74l1.75-11a5.61,5.61,0,0,1,5.39-4.66h4.87A3.84,3.84,0,0,1,642.43,346.5Zm-9.73.87-1.65,10.44a.45.45,0,0,0,0,.21c0,.17.07.27.18.27h4.55c.21,0,.32-.17.39-.48l1.64-10.44c0-.17,0-.28-.17-.28H633C632.87,347.09,632.77,347.2,632.7,347.37Z" transform="translate(-575.77 -326.25)"/><path class="cls-6" d="M660.17,346.5a4.6,4.6,0,0,1-.07.7l-.56,3.46c-.1.67-1,1.37-1.89,1.82L649,356.33l-.25,1.44v.14c0,.21.07.38.21.38h4.45c.21,0,.35-.24.42-.52l.31-2.1h4.56l-.39,2.52a5.64,5.64,0,0,1-5.39,4.66h-4.87a3.82,3.82,0,0,1-4-3.89,6.88,6.88,0,0,1,.07-.77l1.75-11a5.62,5.62,0,0,1,5.39-4.66h4.87A3.83,3.83,0,0,1,660.17,346.5Zm-9.73.91-.63,4.06,4.69-1.93a1.34,1.34,0,0,0,.84-1.08l.17-1c0-.18,0-.32-.21-.32h-4.51A.36.36,0,0,0,650.44,347.41Z" transform="translate(-575.77 -326.25)"/><path class="cls-6" d="M675,342.58a2.73,2.73,0,0,1,2.84,2.8,3.57,3.57,0,0,1,0,.56l-.53,3.5h-4.55l.21-1.51v-.17c0-.18,0-.25-.21-.25s-3.33,1-5,1.58l-2.1,13.41h-4.55l3.08-19.61h4.55l-.28,1.65S673.19,342.58,675,342.58Z" transform="translate(-575.77 -326.25)"/><path class="cls-7" d="M587.06,338.79l-3.71,23.46H578.8l3.71-23.46h-5.74l.7-4.55h16l-.7,4.55Z" transform="translate(-575.77 -326.25)"/><path class="cls-7" d="M605.16,346.25a6.37,6.37,0,0,1-.07.7l-1.75,11A5.67,5.67,0,0,1,598,362.6h-4.87a3.85,3.85,0,0,1-4-3.92,6.17,6.17,0,0,1,.07-.74l1.75-11a5.62,5.62,0,0,1,5.39-4.66h4.87A3.84,3.84,0,0,1,605.16,346.25Zm-9.73.87-1.65,10.44a.56.56,0,0,0,0,.21c0,.17.07.27.17.27h4.55c.21,0,.32-.17.39-.48l1.64-10.44c0-.17,0-.28-.17-.28h-4.59C595.6,346.84,595.5,347,595.43,347.12Z" transform="translate(-575.77 -326.25)"/><path class="cls-7" d="M626,338.27a5.91,5.91,0,0,1-.07.8L623,357.21a6.06,6.06,0,0,1-5.81,5H606.94l4.41-28h10.29A4,4,0,0,1,626,338.27ZM612.23,357.7H618c.31,0,.45-.14.52-.49l2.87-18.14V339q0-.21-.42-.21H615.2Z" transform="translate(-575.77 -326.25)"/><path class="cls-7" d="M642.68,346.25a6.37,6.37,0,0,1-.07.7l-1.75,11a5.67,5.67,0,0,1-5.39,4.66H630.6a3.84,3.84,0,0,1-4-3.92,4.63,4.63,0,0,1,.07-.74l1.75-11a5.61,5.61,0,0,1,5.39-4.66h4.87A3.84,3.84,0,0,1,642.68,346.25Zm-9.73.87-1.65,10.44a.43.43,0,0,0,0,.21c0,.17.07.27.18.27H636c.21,0,.32-.17.39-.48L638,347.12c0-.17,0-.28-.17-.28h-4.59C633.12,346.84,633,347,633,347.12Z" transform="translate(-575.77 -326.25)"/><path class="cls-7" d="M660.42,346.25a4.6,4.6,0,0,1-.07.7l-.56,3.46c-.1.67-1,1.37-1.89,1.82l-8.61,3.85-.25,1.44v.14c0,.21.07.38.21.38h4.45c.21,0,.35-.24.42-.52l.31-2.1H659l-.39,2.52a5.64,5.64,0,0,1-5.39,4.66h-4.87a3.82,3.82,0,0,1-4-3.89,6.88,6.88,0,0,1,.07-.77l1.75-11a5.62,5.62,0,0,1,5.39-4.66h4.87A3.83,3.83,0,0,1,660.42,346.25Zm-9.73.91-.63,4.06,4.69-1.93a1.34,1.34,0,0,0,.84-1.08l.17-1c0-.18,0-.32-.21-.32H651A.36.36,0,0,0,650.69,347.16Z" transform="translate(-575.77 -326.25)"/><path class="cls-7" d="M675.29,342.33a2.73,2.73,0,0,1,2.84,2.8,3.57,3.57,0,0,1,0,.56l-.53,3.5H673l.21-1.51v-.17c0-.18,0-.25-.21-.25s-3.33,1-5,1.58l-2.1,13.41h-4.55l3.08-19.61H669l-.28,1.65S673.44,342.33,675.29,342.33Z" transform="translate(-575.77 -326.25)"/><path class="cls-8" d="M587.31,338.54,583.6,362h-4.55l3.71-23.46H577l.7-4.55h16l-.7,4.55Z" transform="translate(-575.77 -326.25)"/><path class="cls-8" d="M605.41,346a6.37,6.37,0,0,1-.07.7l-1.75,11a5.67,5.67,0,0,1-5.39,4.66h-4.87a3.85,3.85,0,0,1-4-3.92,6.17,6.17,0,0,1,.07-.74l1.75-11a5.62,5.62,0,0,1,5.39-4.66h4.87A3.84,3.84,0,0,1,605.41,346Zm-9.73.87L594,357.31a.59.59,0,0,0,0,.21c0,.17.07.27.17.27h4.55c.21,0,.32-.17.39-.48l1.64-10.44c0-.17,0-.28-.17-.28H596C595.85,346.59,595.75,346.7,595.68,346.87Z" transform="translate(-575.77 -326.25)"/><path class="cls-8" d="M626.23,338a5.91,5.91,0,0,1-.07.8L623.29,357a6.06,6.06,0,0,1-5.81,5H607.19l4.41-28h10.29A4,4,0,0,1,626.23,338Zm-13.75,19.43h5.74c.31,0,.45-.14.52-.49l2.87-18.14v-.07q0-.21-.42-.21h-5.74Z" transform="translate(-575.77 -326.25)"/><path class="cls-8" d="M642.93,346a6.37,6.37,0,0,1-.07.7l-1.75,11a5.67,5.67,0,0,1-5.39,4.66h-4.87a3.84,3.84,0,0,1-4-3.92,4.63,4.63,0,0,1,.07-.74l1.75-11a5.61,5.61,0,0,1,5.39-4.66h4.87A3.84,3.84,0,0,1,642.93,346Zm-9.73.87-1.65,10.44a.45.45,0,0,0,0,.21c0,.17.07.27.18.27h4.55c.21,0,.32-.17.39-.48l1.64-10.44c0-.17,0-.28-.17-.28h-4.59C633.37,346.59,633.27,346.7,633.2,346.87Z" transform="translate(-575.77 -326.25)"/><path class="cls-8" d="M660.67,346a4.6,4.6,0,0,1-.07.7l-.56,3.46c-.1.67-1,1.37-1.89,1.82l-8.61,3.85-.25,1.44v.14c0,.21.07.38.21.38H654c.21,0,.35-.24.42-.52l.31-2.1h4.56l-.39,2.52a5.64,5.64,0,0,1-5.39,4.66h-4.87a3.82,3.82,0,0,1-4-3.89,6.88,6.88,0,0,1,.07-.77l1.75-11a5.62,5.62,0,0,1,5.39-4.66h4.87A3.83,3.83,0,0,1,660.67,346Zm-9.73.91-.63,4.06L655,349a1.34,1.34,0,0,0,.84-1.08l.17-1c0-.18,0-.32-.21-.32h-4.51A.36.36,0,0,0,650.94,346.91Z" transform="translate(-575.77 -326.25)"/><path class="cls-8" d="M675.54,342.08a2.73,2.73,0,0,1,2.84,2.8,3.57,3.57,0,0,1,0,.56l-.53,3.5h-4.55l.21-1.51v-.17c0-.18,0-.25-.21-.25s-3.33,1-5,1.58L666.13,362h-4.55l3.08-19.61h4.55l-.28,1.65S673.69,342.08,675.54,342.08Z" transform="translate(-575.77 -326.25)"/><path class="cls-9" d="M587.56,338.29l-3.71,23.46H579.3L583,338.29h-5.74l.7-4.55h16l-.7,4.55Z" transform="translate(-575.77 -326.25)"/><path class="cls-9" d="M605.66,345.75a6.37,6.37,0,0,1-.07.7l-1.75,11a5.67,5.67,0,0,1-5.39,4.66h-4.87a3.85,3.85,0,0,1-4-3.92,6.17,6.17,0,0,1,.07-.74l1.75-11a5.62,5.62,0,0,1,5.39-4.66h4.87A3.84,3.84,0,0,1,605.66,345.75Zm-9.73.87-1.65,10.44a.56.56,0,0,0,0,.21c0,.17.07.27.17.27H599c.21,0,.32-.17.39-.48L601,346.62c0-.17,0-.28-.17-.28h-4.59C596.1,346.34,596,346.45,595.93,346.62Z" transform="translate(-575.77 -326.25)"/><path class="cls-9" d="M626.48,337.77a5.91,5.91,0,0,1-.07.8l-2.87,18.14a6.06,6.06,0,0,1-5.81,5H607.44l4.41-28h10.29A4,4,0,0,1,626.48,337.77ZM612.73,357.2h5.74c.31,0,.45-.14.52-.49l2.87-18.14v-.07q0-.21-.42-.21H615.7Z" transform="translate(-575.77 -326.25)"/><path class="cls-9" d="M643.18,345.75a6.37,6.37,0,0,1-.07.7l-1.75,11A5.67,5.67,0,0,1,636,362.1H631.1a3.84,3.84,0,0,1-4-3.92,4.63,4.63,0,0,1,.07-.74l1.75-11a5.61,5.61,0,0,1,5.39-4.66h4.87A3.84,3.84,0,0,1,643.18,345.75Zm-9.73.87-1.65,10.44a.43.43,0,0,0,0,.21c0,.17.07.27.18.27h4.55c.21,0,.32-.17.39-.48l1.64-10.44c0-.17,0-.28-.17-.28h-4.59C633.62,346.34,633.52,346.45,633.45,346.62Z" transform="translate(-575.77 -326.25)"/><path class="cls-9" d="M660.92,345.75a4.6,4.6,0,0,1-.07.7l-.56,3.46c-.1.67-1,1.37-1.89,1.82l-8.61,3.85-.25,1.44v.14c0,.21.07.38.21.38h4.45c.21,0,.35-.24.42-.52l.31-2.1h4.56l-.39,2.52a5.64,5.64,0,0,1-5.39,4.66h-4.87a3.82,3.82,0,0,1-4-3.89,6.88,6.88,0,0,1,.07-.77l1.75-11a5.62,5.62,0,0,1,5.39-4.66h4.87A3.83,3.83,0,0,1,660.92,345.75Zm-9.73.91-.63,4.06,4.69-1.93a1.34,1.34,0,0,0,.84-1.08l.17-1c0-.18,0-.32-.21-.32h-4.51A.36.36,0,0,0,651.19,346.66Z" transform="translate(-575.77 -326.25)"/><path class="cls-9" d="M675.79,341.83a2.73,2.73,0,0,1,2.84,2.8,3.57,3.57,0,0,1,0,.56l-.53,3.5h-4.55l.21-1.51V347c0-.18,0-.25-.21-.25s-3.33,1-5,1.58l-2.1,13.41h-4.55l3.08-19.61h4.55l-.28,1.65S673.94,341.83,675.79,341.83Z" transform="translate(-575.77 -326.25)"/><path class="cls-10" d="M587.81,338,584.1,361.5h-4.55L583.26,338h-5.74l.7-4.55h16l-.7,4.55Z" transform="translate(-575.77 -326.25)"/><path class="cls-10" d="M605.91,345.5a6.37,6.37,0,0,1-.07.7l-1.75,11a5.67,5.67,0,0,1-5.39,4.66h-4.87a3.85,3.85,0,0,1-4-3.92,6.17,6.17,0,0,1,.07-.74l1.75-11a5.62,5.62,0,0,1,5.39-4.66h4.87A3.84,3.84,0,0,1,605.91,345.5Zm-9.73.87-1.65,10.44a.59.59,0,0,0,0,.21c0,.17.07.27.17.27h4.55c.21,0,.32-.17.39-.48l1.64-10.44c0-.17,0-.28-.17-.28h-4.59C596.35,346.09,596.25,346.2,596.18,346.37Z" transform="translate(-575.77 -326.25)"/><path class="cls-10" d="M626.73,337.52a5.91,5.91,0,0,1-.07.8l-2.87,18.14a6.06,6.06,0,0,1-5.81,5H607.69l4.41-28h10.29A4,4,0,0,1,626.73,337.52ZM613,357h5.74c.31,0,.45-.14.52-.49l2.87-18.14v-.07q0-.21-.42-.21H616Z" transform="translate(-575.77 -326.25)"/><path class="cls-10" d="M643.43,345.5a6.37,6.37,0,0,1-.07.7l-1.75,11a5.67,5.67,0,0,1-5.39,4.66h-4.87a3.84,3.84,0,0,1-4-3.92,4.63,4.63,0,0,1,.07-.74l1.75-11a5.61,5.61,0,0,1,5.39-4.66h4.87A3.84,3.84,0,0,1,643.43,345.5Zm-9.73.87-1.65,10.44a.45.45,0,0,0,0,.21c0,.17.07.27.18.27h4.55c.21,0,.32-.17.39-.48l1.64-10.44c0-.17,0-.28-.17-.28H634C633.87,346.09,633.77,346.2,633.7,346.37Z" transform="translate(-575.77 -326.25)"/><path class="cls-10" d="M661.17,345.5a4.6,4.6,0,0,1-.07.7l-.56,3.46c-.1.67-1,1.37-1.89,1.82L650,355.33l-.25,1.44v.14c0,.21.07.38.21.38h4.45c.21,0,.35-.24.42-.52l.31-2.1h4.56l-.39,2.52a5.64,5.64,0,0,1-5.39,4.66h-4.87a3.82,3.82,0,0,1-4-3.89,6.88,6.88,0,0,1,.07-.77l1.75-11a5.62,5.62,0,0,1,5.39-4.66h4.87A3.83,3.83,0,0,1,661.17,345.5Zm-9.73.91-.63,4.06,4.69-1.93a1.34,1.34,0,0,0,.84-1.08l.17-1c0-.18,0-.32-.21-.32h-4.51A.36.36,0,0,0,651.44,346.41Z" transform="translate(-575.77 -326.25)"/><path class="cls-10" d="M676,341.58a2.73,2.73,0,0,1,2.84,2.8,3.57,3.57,0,0,1,0,.56l-.53,3.5h-4.55l.21-1.51v-.17c0-.18,0-.25-.21-.25s-3.33,1-5,1.58l-2.1,13.41h-4.55l3.08-19.61h4.55l-.28,1.65S674.19,341.58,676,341.58Z" transform="translate(-575.77 -326.25)"/><path class="cls-11" d="M588.06,337.79l-3.71,23.46H579.8l3.71-23.46h-5.74l.7-4.55h16l-.7,4.55Z" transform="translate(-575.77 -326.25)"/><path class="cls-11" d="M606.16,345.25a6.37,6.37,0,0,1-.07.7l-1.75,11A5.67,5.67,0,0,1,599,361.6h-4.87a3.85,3.85,0,0,1-4-3.92,6.17,6.17,0,0,1,.07-.74l1.75-11a5.62,5.62,0,0,1,5.39-4.66h4.87A3.84,3.84,0,0,1,606.16,345.25Zm-9.73.87-1.65,10.44a.56.56,0,0,0,0,.21c0,.17.07.27.17.27h4.55c.21,0,.32-.17.39-.48l1.64-10.44c0-.17,0-.28-.17-.28h-4.59C596.6,345.84,596.5,346,596.43,346.12Z" transform="translate(-575.77 -326.25)"/><path class="cls-11" d="M627,337.27a5.91,5.91,0,0,1-.07.8L624,356.21a6.06,6.06,0,0,1-5.81,5H607.94l4.41-28h10.29A4,4,0,0,1,627,337.27ZM613.23,356.7H619c.31,0,.45-.14.52-.49l2.87-18.14V338q0-.21-.42-.21H616.2Z" transform="translate(-575.77 -326.25)"/><path class="cls-11" d="M643.68,345.25a6.37,6.37,0,0,1-.07.7l-1.75,11a5.67,5.67,0,0,1-5.39,4.66H631.6a3.84,3.84,0,0,1-4-3.92,4.63,4.63,0,0,1,.07-.74l1.75-11a5.61,5.61,0,0,1,5.39-4.66h4.87A3.84,3.84,0,0,1,643.68,345.25Zm-9.73.87-1.65,10.44a.43.43,0,0,0,0,.21c0,.17.07.27.18.27H637c.21,0,.32-.17.39-.48L639,346.12c0-.17,0-.28-.17-.28h-4.59C634.12,345.84,634,346,634,346.12Z" transform="translate(-575.77 -326.25)"/><path class="cls-11" d="M661.42,345.25a4.6,4.6,0,0,1-.07.7l-.56,3.46c-.1.67-1,1.37-1.89,1.82l-8.61,3.85-.25,1.44v.14c0,.21.07.38.21.38h4.45c.21,0,.35-.24.42-.52l.31-2.1H660l-.39,2.52a5.64,5.64,0,0,1-5.39,4.66h-4.87a3.82,3.82,0,0,1-4-3.89,6.88,6.88,0,0,1,.07-.77l1.75-11a5.62,5.62,0,0,1,5.39-4.66h4.87A3.83,3.83,0,0,1,661.42,345.25Zm-9.73.91-.63,4.06,4.69-1.93a1.34,1.34,0,0,0,.84-1.08l.17-1c0-.18,0-.32-.21-.32H652A.36.36,0,0,0,651.69,346.16Z" transform="translate(-575.77 -326.25)"/><path class="cls-11" d="M676.29,341.33a2.73,2.73,0,0,1,2.84,2.8,3.57,3.57,0,0,1,0,.56l-.53,3.5H674l.21-1.51v-.17c0-.18,0-.25-.21-.25s-3.33,1-5,1.58l-2.1,13.41h-4.55l3.08-19.61H670l-.28,1.65S674.44,341.33,676.29,341.33Z" transform="translate(-575.77 -326.25)"/><path class="cls-12" d="M588.31,337.54,584.6,361h-4.55l3.71-23.46H578l.7-4.55h16l-.7,4.55Z" transform="translate(-575.77 -326.25)"/><path class="cls-12" d="M606.41,345a6.37,6.37,0,0,1-.07.7l-1.75,11a5.67,5.67,0,0,1-5.39,4.66h-4.87a3.85,3.85,0,0,1-4-3.92,6.17,6.17,0,0,1,.07-.74l1.75-11a5.62,5.62,0,0,1,5.39-4.66h4.87A3.84,3.84,0,0,1,606.41,345Zm-9.73.87L595,356.31a.59.59,0,0,0,0,.21c0,.17.07.27.17.27h4.55c.21,0,.32-.17.39-.48l1.64-10.44c0-.17,0-.28-.17-.28H597C596.85,345.59,596.75,345.7,596.68,345.87Z" transform="translate(-575.77 -326.25)"/><path class="cls-12" d="M627.23,337a5.91,5.91,0,0,1-.07.8L624.29,356a6.06,6.06,0,0,1-5.81,5H608.19l4.41-28h10.29A4,4,0,0,1,627.23,337Zm-13.75,19.43h5.74c.31,0,.45-.14.52-.49l2.87-18.14v-.07q0-.21-.42-.21h-5.74Z" transform="translate(-575.77 -326.25)"/><path class="cls-12" d="M643.93,345a6.37,6.37,0,0,1-.07.7l-1.75,11a5.67,5.67,0,0,1-5.39,4.66h-4.87a3.84,3.84,0,0,1-4-3.92,4.63,4.63,0,0,1,.07-.74l1.75-11a5.61,5.61,0,0,1,5.39-4.66h4.87A3.84,3.84,0,0,1,643.93,345Zm-9.73.87-1.65,10.44a.45.45,0,0,0,0,.21c0,.17.07.27.18.27h4.55c.21,0,.32-.17.39-.48l1.64-10.44c0-.17,0-.28-.17-.28h-4.59C634.37,345.59,634.27,345.7,634.2,345.87Z" transform="translate(-575.77 -326.25)"/><path class="cls-12" d="M661.67,345a4.6,4.6,0,0,1-.07.7l-.56,3.46c-.1.67-1,1.37-1.89,1.82l-8.61,3.85-.25,1.44v.14c0,.21.07.38.21.38H655c.21,0,.35-.24.42-.52l.31-2.1h4.56l-.39,2.52a5.64,5.64,0,0,1-5.39,4.66h-4.87a3.82,3.82,0,0,1-4-3.89,6.88,6.88,0,0,1,.07-.77l1.75-11a5.62,5.62,0,0,1,5.39-4.66h4.87A3.83,3.83,0,0,1,661.67,345Zm-9.73.91-.63,4.06L656,348a1.34,1.34,0,0,0,.84-1.08l.17-1c0-.18,0-.32-.21-.32h-4.51A.36.36,0,0,0,651.94,345.91Z" transform="translate(-575.77 -326.25)"/><path class="cls-12" d="M676.54,341.08a2.73,2.73,0,0,1,2.84,2.8,3.57,3.57,0,0,1,0,.56l-.53,3.5h-4.55l.21-1.51v-.17c0-.18,0-.25-.21-.25s-3.33,1-5,1.58L667.13,361h-4.55l3.08-19.61h4.55l-.28,1.65S674.69,341.08,676.54,341.08Z" transform="translate(-575.77 -326.25)"/><path class="cls-13" d="M588.56,337.29l-3.71,23.46H580.3L584,337.29h-5.74l.7-4.55h16l-.7,4.55Z" transform="translate(-575.77 -326.25)"/><path class="cls-13" d="M606.66,344.75a6.37,6.37,0,0,1-.07.7l-1.75,11a5.67,5.67,0,0,1-5.39,4.66h-4.87a3.85,3.85,0,0,1-4-3.92,6.17,6.17,0,0,1,.07-.74l1.75-11a5.62,5.62,0,0,1,5.39-4.66h4.87A3.84,3.84,0,0,1,606.66,344.75Zm-9.73.87-1.65,10.44a.56.56,0,0,0,0,.21c0,.17.07.27.17.27H600c.21,0,.32-.17.39-.48L602,345.62c0-.17,0-.28-.17-.28h-4.59C597.1,345.34,597,345.45,596.93,345.62Z" transform="translate(-575.77 -326.25)"/><path class="cls-13" d="M627.48,336.77a5.91,5.91,0,0,1-.07.8l-2.87,18.14a6.06,6.06,0,0,1-5.81,5H608.44l4.41-28h10.29A4,4,0,0,1,627.48,336.77ZM613.73,356.2h5.74c.31,0,.45-.14.52-.49l2.87-18.14v-.07q0-.21-.42-.21H616.7Z" transform="translate(-575.77 -326.25)"/><path class="cls-13" d="M644.18,344.75a6.37,6.37,0,0,1-.07.7l-1.75,11A5.67,5.67,0,0,1,637,361.1H632.1a3.84,3.84,0,0,1-4-3.92,4.63,4.63,0,0,1,.07-.74l1.75-11a5.61,5.61,0,0,1,5.39-4.66h4.87A3.84,3.84,0,0,1,644.18,344.75Zm-9.73.87-1.65,10.44a.43.43,0,0,0,0,.21c0,.17.07.27.18.27h4.55c.21,0,.32-.17.39-.48l1.64-10.44c0-.17,0-.28-.17-.28h-4.59C634.62,345.34,634.52,345.45,634.45,345.62Z" transform="translate(-575.77 -326.25)"/><path class="cls-13" d="M661.92,344.75a4.6,4.6,0,0,1-.07.7l-.56,3.46c-.1.67-1,1.37-1.89,1.82l-8.61,3.85-.25,1.44v.14c0,.21.07.38.21.38h4.45c.21,0,.35-.24.42-.52l.31-2.1h4.56l-.39,2.52a5.64,5.64,0,0,1-5.39,4.66h-4.87a3.82,3.82,0,0,1-4-3.89,6.88,6.88,0,0,1,.07-.77l1.75-11a5.62,5.62,0,0,1,5.39-4.66h4.87A3.83,3.83,0,0,1,661.92,344.75Zm-9.73.91-.63,4.06,4.69-1.93a1.34,1.34,0,0,0,.84-1.08l.17-1c0-.18,0-.32-.21-.32h-4.51A.36.36,0,0,0,652.19,345.66Z" transform="translate(-575.77 -326.25)"/><path class="cls-13" d="M676.79,340.83a2.73,2.73,0,0,1,2.84,2.8,3.57,3.57,0,0,1,0,.56l-.53,3.5h-4.55l.21-1.51V346c0-.18,0-.25-.21-.25s-3.33,1-5,1.58l-2.1,13.41h-4.55l3.08-19.61h4.55l-.28,1.65S674.94,340.83,676.79,340.83Z" transform="translate(-575.77 -326.25)"/><path class="cls-14" d="M588.81,337,585.1,360.5h-4.55L584.26,337h-5.74l.7-4.55h16l-.7,4.55Z" transform="translate(-575.77 -326.25)"/><path class="cls-14" d="M606.91,344.5a6.37,6.37,0,0,1-.07.7l-1.75,11a5.67,5.67,0,0,1-5.39,4.66h-4.87a3.85,3.85,0,0,1-4-3.92,6.17,6.17,0,0,1,.07-.74l1.75-11a5.62,5.62,0,0,1,5.39-4.66h4.87A3.84,3.84,0,0,1,606.91,344.5Zm-9.73.87-1.65,10.44a.59.59,0,0,0,0,.21c0,.17.07.27.17.27h4.55c.21,0,.32-.17.39-.48l1.64-10.44c0-.17,0-.28-.17-.28h-4.59C597.35,345.09,597.25,345.2,597.18,345.37Z" transform="translate(-575.77 -326.25)"/><path class="cls-14" d="M627.73,336.52a5.91,5.91,0,0,1-.07.8l-2.87,18.14a6.06,6.06,0,0,1-5.81,5H608.69l4.41-28h10.29A4,4,0,0,1,627.73,336.52ZM614,356h5.74c.31,0,.45-.14.52-.49l2.87-18.14v-.07q0-.21-.42-.21H617Z" transform="translate(-575.77 -326.25)"/><path class="cls-14" d="M644.43,344.5a6.37,6.37,0,0,1-.07.7l-1.75,11a5.67,5.67,0,0,1-5.39,4.66h-4.87a3.84,3.84,0,0,1-4-3.92,4.63,4.63,0,0,1,.07-.74l1.75-11a5.61,5.61,0,0,1,5.39-4.66h4.87A3.84,3.84,0,0,1,644.43,344.5Zm-9.73.87-1.65,10.44a.45.45,0,0,0,0,.21c0,.17.07.27.18.27h4.55c.21,0,.32-.17.39-.48l1.64-10.44c0-.17,0-.28-.17-.28H635C634.87,345.09,634.77,345.2,634.7,345.37Z" transform="translate(-575.77 -326.25)"/><path class="cls-14" d="M662.17,344.5a4.6,4.6,0,0,1-.07.7l-.56,3.46c-.1.67-1,1.37-1.89,1.82L651,354.33l-.25,1.44v.14c0,.21.07.38.21.38h4.45c.21,0,.35-.24.42-.52l.31-2.1h4.56l-.39,2.52a5.64,5.64,0,0,1-5.39,4.66h-4.87a3.82,3.82,0,0,1-4-3.89,6.88,6.88,0,0,1,.07-.77l1.75-11a5.62,5.62,0,0,1,5.39-4.66h4.87A3.83,3.83,0,0,1,662.17,344.5Zm-9.73.91-.63,4.06,4.69-1.93a1.34,1.34,0,0,0,.84-1.08l.17-1c0-.18,0-.32-.21-.32h-4.51A.36.36,0,0,0,652.44,345.41Z" transform="translate(-575.77 -326.25)"/><path class="cls-14" d="M677,340.58a2.73,2.73,0,0,1,2.84,2.8,3.57,3.57,0,0,1,0,.56l-.53,3.5h-4.55l.21-1.51v-.17c0-.18,0-.25-.21-.25s-3.33,1-5,1.58l-2.1,13.41h-4.55l3.08-19.61h4.55l-.28,1.65S675.19,340.58,677,340.58Z" transform="translate(-575.77 -326.25)"/><path class="cls-15" d="M589.06,336.79l-3.71,23.46H580.8l3.71-23.46h-5.74l.7-4.55h16l-.7,4.55Z" transform="translate(-575.77 -326.25)"/><path class="cls-15" d="M607.16,344.25a6.37,6.37,0,0,1-.07.7l-1.75,11A5.67,5.67,0,0,1,600,360.6h-4.87a3.85,3.85,0,0,1-4-3.92,6.17,6.17,0,0,1,.07-.74l1.75-11a5.62,5.62,0,0,1,5.39-4.66h4.87A3.84,3.84,0,0,1,607.16,344.25Zm-9.73.87-1.65,10.44a.56.56,0,0,0,0,.21c0,.17.07.27.17.27h4.55c.21,0,.32-.17.39-.48l1.64-10.44c0-.17,0-.28-.17-.28h-4.59C597.6,344.84,597.5,345,597.43,345.12Z" transform="translate(-575.77 -326.25)"/><path class="cls-15" d="M628,336.27a5.91,5.91,0,0,1-.07.8L625,355.21a6.06,6.06,0,0,1-5.81,5H608.94l4.41-28h10.29A4,4,0,0,1,628,336.27ZM614.23,355.7H620c.31,0,.45-.14.52-.49l2.87-18.14V337q0-.21-.42-.21H617.2Z" transform="translate(-575.77 -326.25)"/><path class="cls-15" d="M644.68,344.25a6.37,6.37,0,0,1-.07.7l-1.75,11a5.67,5.67,0,0,1-5.39,4.66H632.6a3.84,3.84,0,0,1-4-3.92,4.63,4.63,0,0,1,.07-.74l1.75-11a5.61,5.61,0,0,1,5.39-4.66h4.87A3.84,3.84,0,0,1,644.68,344.25Zm-9.73.87-1.65,10.44a.43.43,0,0,0,0,.21c0,.17.07.27.18.27H638c.21,0,.32-.17.39-.48L640,345.12c0-.17,0-.28-.17-.28h-4.59C635.12,344.84,635,345,635,345.12Z" transform="translate(-575.77 -326.25)"/><path class="cls-15" d="M662.42,344.25a4.6,4.6,0,0,1-.07.7l-.56,3.46c-.1.67-1,1.37-1.89,1.82l-8.61,3.85-.25,1.44v.14c0,.21.07.38.21.38h4.45c.21,0,.35-.24.42-.52l.31-2.1H661l-.39,2.52a5.64,5.64,0,0,1-5.39,4.66h-4.87a3.82,3.82,0,0,1-4-3.89,6.88,6.88,0,0,1,.07-.77l1.75-11a5.62,5.62,0,0,1,5.39-4.66h4.87A3.83,3.83,0,0,1,662.42,344.25Zm-9.73.91-.63,4.06,4.69-1.93a1.34,1.34,0,0,0,.84-1.08l.17-1c0-.18,0-.32-.21-.32H653A.36.36,0,0,0,652.69,345.16Z" transform="translate(-575.77 -326.25)"/><path class="cls-15" d="M677.29,340.33a2.73,2.73,0,0,1,2.84,2.8,3.57,3.57,0,0,1,0,.56l-.53,3.5H675l.21-1.51v-.17c0-.18,0-.25-.21-.25s-3.33,1-5,1.58l-2.1,13.41h-4.55l3.08-19.61H671l-.28,1.65S675.44,340.33,677.29,340.33Z" transform="translate(-575.77 -326.25)"/><path class="cls-16" d="M589.31,336.54,585.6,360h-4.55l3.71-23.46H579l.7-4.55h16l-.7,4.55Z" transform="translate(-575.77 -326.25)"/><path class="cls-16" d="M607.41,344a6.37,6.37,0,0,1-.07.7l-1.75,11a5.67,5.67,0,0,1-5.39,4.66h-4.87a3.85,3.85,0,0,1-4-3.92,6.17,6.17,0,0,1,.07-.74l1.75-11a5.62,5.62,0,0,1,5.39-4.66h4.87A3.84,3.84,0,0,1,607.41,344Zm-9.73.87L596,355.31a.59.59,0,0,0,0,.21c0,.17.07.27.17.27h4.55c.21,0,.32-.17.39-.48l1.64-10.44c0-.17,0-.28-.17-.28H598C597.85,344.59,597.75,344.7,597.68,344.87Z" transform="translate(-575.77 -326.25)"/><path class="cls-16" d="M628.23,336a5.91,5.91,0,0,1-.07.8L625.29,355a6.06,6.06,0,0,1-5.81,5H609.19l4.41-28h10.29A4,4,0,0,1,628.23,336Zm-13.75,19.43h5.74c.31,0,.45-.14.52-.49l2.87-18.14v-.07q0-.21-.42-.21h-5.74Z" transform="translate(-575.77 -326.25)"/><path class="cls-16" d="M644.93,344a6.37,6.37,0,0,1-.07.7l-1.75,11a5.67,5.67,0,0,1-5.39,4.66h-4.87a3.84,3.84,0,0,1-4-3.92,4.63,4.63,0,0,1,.07-.74l1.75-11a5.61,5.61,0,0,1,5.39-4.66h4.87A3.84,3.84,0,0,1,644.93,344Zm-9.73.87-1.65,10.44a.45.45,0,0,0,0,.21c0,.17.07.27.18.27h4.55c.21,0,.32-.17.39-.48l1.64-10.44c0-.17,0-.28-.17-.28h-4.59C635.37,344.59,635.27,344.7,635.2,344.87Z" transform="translate(-575.77 -326.25)"/><path class="cls-16" d="M662.67,344a4.6,4.6,0,0,1-.07.7l-.56,3.46c-.1.67-1,1.37-1.89,1.82l-8.61,3.85-.25,1.44v.14c0,.21.07.38.21.38H656c.21,0,.35-.24.42-.52l.31-2.1h4.56l-.39,2.52a5.64,5.64,0,0,1-5.39,4.66h-4.87a3.82,3.82,0,0,1-4-3.89,6.88,6.88,0,0,1,.07-.77l1.75-11a5.62,5.62,0,0,1,5.39-4.66h4.87A3.83,3.83,0,0,1,662.67,344Zm-9.73.91-.63,4.06L657,347a1.34,1.34,0,0,0,.84-1.08l.17-1c0-.18,0-.32-.21-.32h-4.51A.36.36,0,0,0,652.94,344.91Z" transform="translate(-575.77 -326.25)"/><path class="cls-16" d="M677.54,340.08a2.73,2.73,0,0,1,2.84,2.8,3.57,3.57,0,0,1,0,.56l-.53,3.5h-4.55l.21-1.51v-.17c0-.18,0-.25-.21-.25s-3.33,1-5,1.58L668.13,360h-4.55l3.08-19.61h4.55l-.28,1.65S675.69,340.08,677.54,340.08Z" transform="translate(-575.77 -326.25)"/><path class="cls-17" d="M589.56,336.29l-3.71,23.46H581.3L585,336.29h-5.74l.7-4.55h16l-.7,4.55Z" transform="translate(-575.77 -326.25)"/><path class="cls-17" d="M607.66,343.75a6.37,6.37,0,0,1-.07.7l-1.75,11a5.67,5.67,0,0,1-5.39,4.66h-4.87a3.85,3.85,0,0,1-4-3.92,6.17,6.17,0,0,1,.07-.74l1.75-11a5.62,5.62,0,0,1,5.39-4.66h4.87A3.84,3.84,0,0,1,607.66,343.75Zm-9.73.87-1.65,10.44a.56.56,0,0,0,0,.21c0,.17.07.27.17.27H601c.21,0,.32-.17.39-.48L603,344.62c0-.17,0-.28-.17-.28h-4.59C598.1,344.34,598,344.45,597.93,344.62Z" transform="translate(-575.77 -326.25)"/><path class="cls-17" d="M628.48,335.77a5.91,5.91,0,0,1-.07.8l-2.87,18.14a6.06,6.06,0,0,1-5.81,5H609.44l4.41-28h10.29A4,4,0,0,1,628.48,335.77ZM614.73,355.2h5.74c.31,0,.45-.14.52-.49l2.87-18.14v-.07q0-.21-.42-.21H617.7Z" transform="translate(-575.77 -326.25)"/><path class="cls-17" d="M645.18,343.75a6.37,6.37,0,0,1-.07.7l-1.75,11A5.67,5.67,0,0,1,638,360.1H633.1a3.84,3.84,0,0,1-4-3.92,4.63,4.63,0,0,1,.07-.74l1.75-11a5.61,5.61,0,0,1,5.39-4.66h4.87A3.84,3.84,0,0,1,645.18,343.75Zm-9.73.87-1.65,10.44a.43.43,0,0,0,0,.21c0,.17.07.27.18.27h4.55c.21,0,.32-.17.39-.48l1.64-10.44c0-.17,0-.28-.17-.28h-4.59C635.62,344.34,635.52,344.45,635.45,344.62Z" transform="translate(-575.77 -326.25)"/><path class="cls-17" d="M662.92,343.75a4.6,4.6,0,0,1-.07.7l-.56,3.46c-.1.67-1,1.37-1.89,1.82l-8.61,3.85-.25,1.44v.14c0,.21.07.38.21.38h4.45c.21,0,.35-.24.42-.52l.31-2.1h4.56l-.39,2.52a5.64,5.64,0,0,1-5.39,4.66h-4.87a3.82,3.82,0,0,1-4-3.89,6.88,6.88,0,0,1,.07-.77l1.75-11a5.62,5.62,0,0,1,5.39-4.66h4.87A3.83,3.83,0,0,1,662.92,343.75Zm-9.73.91-.63,4.06,4.69-1.93a1.34,1.34,0,0,0,.84-1.08l.17-1c0-.18,0-.32-.21-.32h-4.51A.36.36,0,0,0,653.19,344.66Z" transform="translate(-575.77 -326.25)"/><path class="cls-17" d="M677.79,339.83a2.73,2.73,0,0,1,2.84,2.8,3.57,3.57,0,0,1,0,.56l-.53,3.5h-4.55l.21-1.51V345c0-.18,0-.25-.21-.25s-3.33,1-5,1.58l-2.1,13.41h-4.55l3.08-19.61h4.55l-.28,1.65S675.94,339.83,677.79,339.83Z" transform="translate(-575.77 -326.25)"/><path class="cls-18" d="M589.81,336,586.1,359.5h-4.55L585.26,336h-5.74l.7-4.55h16l-.7,4.55Z" transform="translate(-575.77 -326.25)"/><path class="cls-18" d="M607.91,343.5a6.37,6.37,0,0,1-.07.7l-1.75,11a5.67,5.67,0,0,1-5.39,4.66h-4.87a3.85,3.85,0,0,1-4-3.92,6.17,6.17,0,0,1,.07-.74l1.75-11a5.62,5.62,0,0,1,5.39-4.66h4.87A3.84,3.84,0,0,1,607.91,343.5Zm-9.73.87-1.65,10.44a.59.59,0,0,0,0,.21c0,.17.07.27.17.27h4.55c.21,0,.32-.17.39-.48l1.64-10.44c0-.17,0-.28-.17-.28h-4.59C598.35,344.09,598.25,344.2,598.18,344.37Z" transform="translate(-575.77 -326.25)"/><path class="cls-18" d="M628.73,335.52a5.91,5.91,0,0,1-.07.8l-2.87,18.14a6.06,6.06,0,0,1-5.81,5H609.69l4.41-28h10.29A4,4,0,0,1,628.73,335.52ZM615,355h5.74c.31,0,.45-.14.52-.49l2.87-18.14v-.07q0-.21-.42-.21H618Z" transform="translate(-575.77 -326.25)"/><path class="cls-18" d="M645.43,343.5a6.37,6.37,0,0,1-.07.7l-1.75,11a5.67,5.67,0,0,1-5.39,4.66h-4.87a3.84,3.84,0,0,1-4-3.92,4.63,4.63,0,0,1,.07-.74l1.75-11a5.61,5.61,0,0,1,5.39-4.66h4.87A3.84,3.84,0,0,1,645.43,343.5Zm-9.73.87-1.65,10.44a.45.45,0,0,0,0,.21c0,.17.07.27.18.27h4.55c.21,0,.32-.17.39-.48l1.64-10.44c0-.17,0-.28-.17-.28H636C635.87,344.09,635.77,344.2,635.7,344.37Z" transform="translate(-575.77 -326.25)"/><path class="cls-18" d="M663.17,343.5a4.6,4.6,0,0,1-.07.7l-.56,3.46c-.1.67-1,1.37-1.89,1.82L652,353.33l-.25,1.44v.14c0,.21.07.38.21.38h4.45c.21,0,.35-.24.42-.52l.31-2.1h4.56l-.39,2.52a5.64,5.64,0,0,1-5.39,4.66h-4.87a3.82,3.82,0,0,1-4-3.89,6.88,6.88,0,0,1,.07-.77l1.75-11a5.62,5.62,0,0,1,5.39-4.66h4.87A3.83,3.83,0,0,1,663.17,343.5Zm-9.73.91-.63,4.06,4.69-1.93a1.34,1.34,0,0,0,.84-1.08l.17-1c0-.18,0-.32-.21-.32h-4.51A.36.36,0,0,0,653.44,344.41Z" transform="translate(-575.77 -326.25)"/><path class="cls-18" d="M678,339.58a2.73,2.73,0,0,1,2.84,2.8,3.57,3.57,0,0,1,0,.56l-.53,3.5h-4.55l.21-1.51v-.17c0-.18,0-.25-.21-.25s-3.33,1-5,1.58l-2.1,13.41h-4.55l3.08-19.61h4.55l-.28,1.65S676.19,339.58,678,339.58Z" transform="translate(-575.77 -326.25)"/><path class="cls-19" d="M590.06,335.79l-3.71,23.46H581.8l3.71-23.46h-5.74l.7-4.55h16l-.7,4.55Z" transform="translate(-575.77 -326.25)"/><path class="cls-19" d="M608.16,343.25a6.37,6.37,0,0,1-.07.7l-1.75,11A5.67,5.67,0,0,1,601,359.6h-4.87a3.85,3.85,0,0,1-4-3.92,6.17,6.17,0,0,1,.07-.74l1.75-11a5.62,5.62,0,0,1,5.39-4.66h4.87A3.84,3.84,0,0,1,608.16,343.25Zm-9.73.87-1.65,10.44a.56.56,0,0,0,0,.21c0,.17.07.27.17.27h4.55c.21,0,.32-.17.39-.48l1.64-10.44c0-.17,0-.28-.17-.28h-4.59C598.6,343.84,598.5,344,598.43,344.12Z" transform="translate(-575.77 -326.25)"/><path class="cls-19" d="M629,335.27a5.91,5.91,0,0,1-.07.8L626,354.21a6.06,6.06,0,0,1-5.81,5H609.94l4.41-28h10.29A4,4,0,0,1,629,335.27ZM615.23,354.7H621c.31,0,.45-.14.52-.49l2.87-18.14V336q0-.21-.42-.21H618.2Z" transform="translate(-575.77 -326.25)"/><path class="cls-19" d="M645.68,343.25a6.37,6.37,0,0,1-.07.7l-1.75,11a5.67,5.67,0,0,1-5.39,4.66H633.6a3.84,3.84,0,0,1-4-3.92,4.63,4.63,0,0,1,.07-.74l1.75-11a5.61,5.61,0,0,1,5.39-4.66h4.87A3.84,3.84,0,0,1,645.68,343.25Zm-9.73.87-1.65,10.44a.43.43,0,0,0,0,.21c0,.17.07.27.18.27H639c.21,0,.32-.17.39-.48L641,344.12c0-.17,0-.28-.17-.28h-4.59C636.12,343.84,636,344,636,344.12Z" transform="translate(-575.77 -326.25)"/><path class="cls-19" d="M663.42,343.25a4.6,4.6,0,0,1-.07.7l-.56,3.46c-.1.67-1,1.37-1.89,1.82l-8.61,3.85-.25,1.44v.14c0,.21.07.38.21.38h4.45c.21,0,.35-.24.42-.52l.31-2.1H662l-.39,2.52a5.64,5.64,0,0,1-5.39,4.66h-4.87a3.82,3.82,0,0,1-4-3.89,6.88,6.88,0,0,1,.07-.77l1.75-11a5.62,5.62,0,0,1,5.39-4.66h4.87A3.83,3.83,0,0,1,663.42,343.25Zm-9.73.91-.63,4.06,4.69-1.93a1.34,1.34,0,0,0,.84-1.08l.17-1c0-.18,0-.32-.21-.32H654A.36.36,0,0,0,653.69,344.16Z" transform="translate(-575.77 -326.25)"/><path class="cls-19" d="M678.29,339.33a2.73,2.73,0,0,1,2.84,2.8,3.57,3.57,0,0,1,0,.56l-.53,3.5H676l.21-1.51v-.17c0-.18,0-.25-.21-.25s-3.33,1-5,1.58l-2.1,13.41h-4.55l3.08-19.61H672l-.28,1.65S676.44,339.33,678.29,339.33Z" transform="translate(-575.77 -326.25)"/><path class="cls-20" d="M590.31,335.54,586.6,359h-4.55l3.71-23.46H580l.7-4.55h16l-.7,4.55Z" transform="translate(-575.77 -326.25)"/><path class="cls-20" d="M608.41,343a6.37,6.37,0,0,1-.07.7l-1.75,11a5.67,5.67,0,0,1-5.39,4.66h-4.87a3.85,3.85,0,0,1-4-3.92,6.17,6.17,0,0,1,.07-.74l1.75-11a5.62,5.62,0,0,1,5.39-4.66h4.87A3.84,3.84,0,0,1,608.41,343Zm-9.73.87L597,354.31a.59.59,0,0,0,0,.21c0,.17.07.27.17.27h4.55c.21,0,.32-.17.39-.48l1.64-10.44c0-.17,0-.28-.17-.28H599C598.85,343.59,598.75,343.7,598.68,343.87Z" transform="translate(-575.77 -326.25)"/><path class="cls-20" d="M629.23,335a5.91,5.91,0,0,1-.07.8L626.29,354a6.06,6.06,0,0,1-5.81,5H610.19l4.41-28h10.29A4,4,0,0,1,629.23,335Zm-13.75,19.43h5.74c.31,0,.45-.14.52-.49l2.87-18.14v-.07q0-.21-.42-.21h-5.74Z" transform="translate(-575.77 -326.25)"/><path class="cls-20" d="M645.93,343a6.37,6.37,0,0,1-.07.7l-1.75,11a5.67,5.67,0,0,1-5.39,4.66h-4.87a3.84,3.84,0,0,1-4-3.92,4.63,4.63,0,0,1,.07-.74l1.75-11a5.61,5.61,0,0,1,5.39-4.66h4.87A3.84,3.84,0,0,1,645.93,343Zm-9.73.87-1.65,10.44a.45.45,0,0,0,0,.21c0,.17.07.27.18.27h4.55c.21,0,.32-.17.39-.48l1.64-10.44c0-.17,0-.28-.17-.28h-4.59C636.37,343.59,636.27,343.7,636.2,343.87Z" transform="translate(-575.77 -326.25)"/><path class="cls-20" d="M663.67,343a4.6,4.6,0,0,1-.07.7l-.56,3.46c-.1.67-1,1.37-1.89,1.82l-8.61,3.85-.25,1.44v.14c0,.21.07.38.21.38H657c.21,0,.35-.24.42-.52l.31-2.1h4.56l-.39,2.52a5.64,5.64,0,0,1-5.39,4.66h-4.87a3.82,3.82,0,0,1-4-3.89,6.88,6.88,0,0,1,.07-.77l1.75-11a5.62,5.62,0,0,1,5.39-4.66h4.87A3.83,3.83,0,0,1,663.67,343Zm-9.73.91-.63,4.06L658,346a1.34,1.34,0,0,0,.84-1.08l.17-1c0-.18,0-.32-.21-.32h-4.51A.36.36,0,0,0,653.94,343.91Z" transform="translate(-575.77 -326.25)"/><path class="cls-20" d="M678.54,339.08a2.73,2.73,0,0,1,2.84,2.8,3.57,3.57,0,0,1,0,.56l-.53,3.5h-4.55l.21-1.51v-.17c0-.18,0-.25-.21-.25s-3.33,1-5,1.58L669.13,359h-4.55l3.08-19.61h4.55l-.28,1.65S676.69,339.08,678.54,339.08Z" transform="translate(-575.77 -326.25)"/><path class="cls-21" d="M590.56,335.29l-3.71,23.46H582.3L586,335.29h-5.74l.7-4.55h16l-.7,4.55Z" transform="translate(-575.77 -326.25)"/><path class="cls-21" d="M608.66,342.75a6.37,6.37,0,0,1-.07.7l-1.75,11a5.67,5.67,0,0,1-5.39,4.66h-4.87a3.85,3.85,0,0,1-4-3.92,6.17,6.17,0,0,1,.07-.74l1.75-11a5.62,5.62,0,0,1,5.39-4.66h4.87A3.84,3.84,0,0,1,608.66,342.75Zm-9.73.87-1.65,10.44a.56.56,0,0,0,0,.21c0,.17.07.27.17.27H602c.21,0,.32-.17.39-.48L604,343.62c0-.17,0-.28-.17-.28h-4.59C599.1,343.34,599,343.45,598.93,343.62Z" transform="translate(-575.77 -326.25)"/><path class="cls-21" d="M629.48,334.77a5.91,5.91,0,0,1-.07.8l-2.87,18.14a6.06,6.06,0,0,1-5.81,5H610.44l4.41-28h10.29A4,4,0,0,1,629.48,334.77ZM615.73,354.2h5.74c.31,0,.45-.14.52-.49l2.87-18.14v-.07q0-.21-.42-.21H618.7Z" transform="translate(-575.77 -326.25)"/><path class="cls-21" d="M646.18,342.75a6.37,6.37,0,0,1-.07.7l-1.75,11A5.67,5.67,0,0,1,639,359.1H634.1a3.84,3.84,0,0,1-4-3.92,4.63,4.63,0,0,1,.07-.74l1.75-11a5.61,5.61,0,0,1,5.39-4.66h4.87A3.84,3.84,0,0,1,646.18,342.75Zm-9.73.87-1.65,10.44a.43.43,0,0,0,0,.21c0,.17.07.27.18.27h4.55c.21,0,.32-.17.39-.48l1.64-10.44c0-.17,0-.28-.17-.28h-4.59C636.62,343.34,636.52,343.45,636.45,343.62Z" transform="translate(-575.77 -326.25)"/><path class="cls-21" d="M663.92,342.75a4.6,4.6,0,0,1-.07.7l-.56,3.46c-.1.67-1,1.37-1.89,1.82l-8.61,3.85-.25,1.44v.14c0,.21.07.38.21.38h4.45c.21,0,.35-.24.42-.52l.31-2.1h4.56l-.39,2.52a5.64,5.64,0,0,1-5.39,4.66h-4.87a3.82,3.82,0,0,1-4-3.89,6.88,6.88,0,0,1,.07-.77l1.75-11a5.62,5.62,0,0,1,5.39-4.66h4.87A3.83,3.83,0,0,1,663.92,342.75Zm-9.73.91-.63,4.06,4.69-1.93a1.34,1.34,0,0,0,.84-1.08l.17-1c0-.18,0-.32-.21-.32h-4.51A.36.36,0,0,0,654.19,343.66Z" transform="translate(-575.77 -326.25)"/><path class="cls-21" d="M678.79,338.83a2.73,2.73,0,0,1,2.84,2.8,3.57,3.57,0,0,1,0,.56l-.53,3.5h-4.55l.21-1.51V344c0-.18,0-.25-.21-.25s-3.33,1-5,1.58l-2.1,13.41h-4.55l3.08-19.61h4.55l-.28,1.65S676.94,338.83,678.79,338.83Z" transform="translate(-575.77 -326.25)"/><path class="cls-22" d="M590.81,335,587.1,358.5h-4.55L586.26,335h-5.74l.7-4.55h16l-.7,4.55Z" transform="translate(-575.77 -326.25)"/><path class="cls-22" d="M608.91,342.5a6.37,6.37,0,0,1-.07.7l-1.75,11a5.67,5.67,0,0,1-5.39,4.66h-4.87a3.85,3.85,0,0,1-4-3.92,6.17,6.17,0,0,1,.07-.74l1.75-11a5.62,5.62,0,0,1,5.39-4.66h4.87A3.84,3.84,0,0,1,608.91,342.5Zm-9.73.87-1.65,10.44a.59.59,0,0,0,0,.21c0,.17.07.27.17.27h4.55c.21,0,.32-.17.39-.48l1.64-10.44c0-.17,0-.28-.17-.28h-4.59C599.35,343.09,599.25,343.2,599.18,343.37Z" transform="translate(-575.77 -326.25)"/><path class="cls-22" d="M629.73,334.52a5.91,5.91,0,0,1-.07.8l-2.87,18.14a6.06,6.06,0,0,1-5.81,5H610.69l4.41-28h10.29A4,4,0,0,1,629.73,334.52ZM616,354h5.74c.31,0,.45-.14.52-.49l2.87-18.14v-.07q0-.21-.42-.21H619Z" transform="translate(-575.77 -326.25)"/><path class="cls-22" d="M646.43,342.5a6.37,6.37,0,0,1-.07.7l-1.75,11a5.67,5.67,0,0,1-5.39,4.66h-4.87a3.84,3.84,0,0,1-4-3.92,4.63,4.63,0,0,1,.07-.74l1.75-11a5.61,5.61,0,0,1,5.39-4.66h4.87A3.84,3.84,0,0,1,646.43,342.5Zm-9.73.87-1.65,10.44a.45.45,0,0,0,0,.21c0,.17.07.27.18.27h4.55c.21,0,.32-.17.39-.48l1.64-10.44c0-.17,0-.28-.17-.28H637C636.87,343.09,636.77,343.2,636.7,343.37Z" transform="translate(-575.77 -326.25)"/><path class="cls-22" d="M664.17,342.5a4.6,4.6,0,0,1-.07.7l-.56,3.46c-.1.67-1,1.37-1.89,1.82L653,352.33l-.25,1.44v.14c0,.21.07.38.21.38h4.45c.21,0,.35-.24.42-.52l.31-2.1h4.56l-.39,2.52a5.64,5.64,0,0,1-5.39,4.66h-4.87a3.82,3.82,0,0,1-4-3.89,6.88,6.88,0,0,1,.07-.77l1.75-11a5.62,5.62,0,0,1,5.39-4.66h4.87A3.83,3.83,0,0,1,664.17,342.5Zm-9.73.91-.63,4.06,4.69-1.93a1.34,1.34,0,0,0,.84-1.08l.17-1c0-.18,0-.32-.21-.32h-4.51A.36.36,0,0,0,654.44,343.41Z" transform="translate(-575.77 -326.25)"/><path class="cls-22" d="M679,338.58a2.73,2.73,0,0,1,2.84,2.8,3.57,3.57,0,0,1,0,.56l-.53,3.5h-4.55l.21-1.51v-.17c0-.18,0-.25-.21-.25s-3.33,1-5,1.58l-2.1,13.41h-4.55l3.08-19.61h4.55l-.28,1.65S677.19,338.58,679,338.58Z" transform="translate(-575.77 -326.25)"/><path class="cls-23" d="M591.06,334.79l-3.71,23.46H582.8l3.71-23.46h-5.74l.7-4.55h16l-.7,4.55Z" transform="translate(-575.77 -326.25)"/><path class="cls-23" d="M609.16,342.25a6.37,6.37,0,0,1-.07.7l-1.75,11A5.67,5.67,0,0,1,602,358.6h-4.87a3.85,3.85,0,0,1-4-3.92,6.17,6.17,0,0,1,.07-.74l1.75-11a5.62,5.62,0,0,1,5.39-4.66h4.87A3.84,3.84,0,0,1,609.16,342.25Zm-9.73.87-1.65,10.44a.56.56,0,0,0,0,.21c0,.17.07.27.17.27h4.55c.21,0,.32-.17.39-.48l1.64-10.44c0-.17,0-.28-.17-.28h-4.59C599.6,342.84,599.5,343,599.43,343.12Z" transform="translate(-575.77 -326.25)"/><path class="cls-23" d="M630,334.27a5.91,5.91,0,0,1-.07.8L627,353.21a6.06,6.06,0,0,1-5.81,5H610.94l4.41-28h10.29A4,4,0,0,1,630,334.27ZM616.23,353.7H622c.31,0,.45-.14.52-.49l2.87-18.14V335q0-.21-.42-.21H619.2Z" transform="translate(-575.77 -326.25)"/><path class="cls-23" d="M646.68,342.25a6.37,6.37,0,0,1-.07.7l-1.75,11a5.67,5.67,0,0,1-5.39,4.66H634.6a3.84,3.84,0,0,1-4-3.92,4.63,4.63,0,0,1,.07-.74l1.75-11a5.61,5.61,0,0,1,5.39-4.66h4.87A3.84,3.84,0,0,1,646.68,342.25Zm-9.73.87-1.65,10.44a.43.43,0,0,0,0,.21c0,.17.07.27.18.27H640c.21,0,.32-.17.39-.48L642,343.12c0-.17,0-.28-.17-.28h-4.59C637.12,342.84,637,343,637,343.12Z" transform="translate(-575.77 -326.25)"/><path class="cls-23" d="M664.42,342.25a4.6,4.6,0,0,1-.07.7l-.56,3.46c-.1.67-1,1.37-1.89,1.82l-8.61,3.85-.25,1.44v.14c0,.21.07.38.21.38h4.45c.21,0,.35-.24.42-.52l.31-2.1H663l-.39,2.52a5.64,5.64,0,0,1-5.39,4.66h-4.87a3.82,3.82,0,0,1-4-3.89,6.88,6.88,0,0,1,.07-.77l1.75-11a5.62,5.62,0,0,1,5.39-4.66h4.87A3.83,3.83,0,0,1,664.42,342.25Zm-9.73.91-.63,4.06,4.69-1.93a1.34,1.34,0,0,0,.84-1.08l.17-1c0-.18,0-.32-.21-.32H655A.36.36,0,0,0,654.69,343.16Z" transform="translate(-575.77 -326.25)"/><path class="cls-23" d="M679.29,338.33a2.73,2.73,0,0,1,2.84,2.8,3.57,3.57,0,0,1,0,.56l-.53,3.5H677l.21-1.51v-.17c0-.18,0-.25-.21-.25s-3.33,1-5,1.58l-2.1,13.41h-4.55l3.08-19.61H673l-.28,1.65S677.44,338.33,679.29,338.33Z" transform="translate(-575.77 -326.25)"/><text class="cls-24" transform="translate(2.55 32)"><tspan class="cls-2">T</tspan><tspan x="13.93" y="0">oDoer</tspan></text><text class="cls-25" transform="translate(2.55 32)"><tspan class="cls-2">T</tspan><tspan x="13.93" y="0">oDoer</tspan></text></svg>